<mxfile host="app.diagrams.net" agent="Mozilla/5.0 (Macintosh; Intel Mac OS X 10.15; rv:127.0) Gecko/20100101 Firefox/127.0" version="24.7.4">
  <diagram name="Page-1" id="evYK1OMf3_o0m8oPz7Mj">
    <mxGraphModel dx="1534" dy="876" grid="1" gridSize="10" guides="1" tooltips="1" connect="1" arrows="1" fold="1" page="1" pageScale="1" pageWidth="850" pageHeight="1100" math="0" shadow="0">
      <root>
        <mxCell id="0" />
        <mxCell id="1" parent="0" />
        <mxCell id="PTl18jBojiNFMFhD4Kyn-3" value="" style="rounded=1;whiteSpace=wrap;html=1;fillColor=#e1d5e7;strokeColor=#9673a6;" parent="1" vertex="1">
          <mxGeometry x="200" y="250" width="430" height="380" as="geometry" />
        </mxCell>
        <mxCell id="PTl18jBojiNFMFhD4Kyn-1" value=".store" style="shape=cylinder3;whiteSpace=wrap;html=1;boundedLbl=1;backgroundOutline=1;size=15;" parent="1" vertex="1">
          <mxGeometry x="80" y="335" width="60" height="80" as="geometry" />
        </mxCell>
        <mxCell id="PTl18jBojiNFMFhD4Kyn-13" style="edgeStyle=orthogonalEdgeStyle;rounded=0;orthogonalLoop=1;jettySize=auto;html=1;" parent="1" edge="1">
          <mxGeometry relative="1" as="geometry">
            <mxPoint x="392" y="490" as="sourcePoint" />
            <mxPoint x="392" y="400" as="targetPoint" />
          </mxGeometry>
        </mxCell>
        <mxCell id="PTl18jBojiNFMFhD4Kyn-14" value="WRITE" style="edgeLabel;html=1;align=center;verticalAlign=middle;resizable=0;points=[];" parent="PTl18jBojiNFMFhD4Kyn-13" vertex="1" connectable="0">
          <mxGeometry x="-0.2" y="-1" relative="1" as="geometry">
            <mxPoint x="-3" y="6" as="offset" />
          </mxGeometry>
        </mxCell>
        <mxCell id="PTl18jBojiNFMFhD4Kyn-26" style="edgeStyle=orthogonalEdgeStyle;rounded=0;orthogonalLoop=1;jettySize=auto;html=1;" parent="1" source="PTl18jBojiNFMFhD4Kyn-2" edge="1">
          <mxGeometry relative="1" as="geometry">
            <mxPoint x="110" y="420" as="targetPoint" />
          </mxGeometry>
        </mxCell>
        <mxCell id="PTl18jBojiNFMFhD4Kyn-27" value="LOAD" style="edgeLabel;html=1;align=center;verticalAlign=middle;resizable=0;points=[];" parent="PTl18jBojiNFMFhD4Kyn-26" vertex="1" connectable="0">
          <mxGeometry x="-0.4533" y="2" relative="1" as="geometry">
            <mxPoint x="-19" y="-2" as="offset" />
          </mxGeometry>
        </mxCell>
        <mxCell id="PTl18jBojiNFMFhD4Kyn-2" value="&lt;div&gt;Listener&lt;/div&gt;" style="whiteSpace=wrap;html=1;aspect=fixed;" parent="1" vertex="1">
          <mxGeometry x="370" y="490" width="80" height="80" as="geometry" />
        </mxCell>
        <mxCell id="PTl18jBojiNFMFhD4Kyn-4" value="inmem" style="shape=card;whiteSpace=wrap;html=1;" parent="1" vertex="1">
          <mxGeometry x="370" y="300" width="80" height="100" as="geometry" />
        </mxCell>
        <mxCell id="PTl18jBojiNFMFhD4Kyn-5" value="TCP Server" style="text;html=1;align=center;verticalAlign=middle;whiteSpace=wrap;rounded=0;" parent="1" vertex="1">
          <mxGeometry x="250" y="280" width="60" height="30" as="geometry" />
        </mxCell>
        <mxCell id="PTl18jBojiNFMFhD4Kyn-7" style="edgeStyle=orthogonalEdgeStyle;rounded=0;orthogonalLoop=1;jettySize=auto;html=1;" parent="1" source="PTl18jBojiNFMFhD4Kyn-6" target="PTl18jBojiNFMFhD4Kyn-2" edge="1">
          <mxGeometry relative="1" as="geometry" />
        </mxCell>
        <mxCell id="PTl18jBojiNFMFhD4Kyn-10" value="&lt;div&gt;Command&lt;/div&gt;" style="edgeLabel;html=1;align=center;verticalAlign=middle;resizable=0;points=[];" parent="PTl18jBojiNFMFhD4Kyn-7" vertex="1" connectable="0">
          <mxGeometry x="-0.3212" y="-3" relative="1" as="geometry">
            <mxPoint as="offset" />
          </mxGeometry>
        </mxCell>
        <mxCell id="PTl18jBojiNFMFhD4Kyn-6" value="&lt;div&gt;Client&lt;/div&gt;&lt;div&gt;&lt;br&gt;&lt;/div&gt;" style="shape=umlActor;verticalLabelPosition=bottom;verticalAlign=top;html=1;outlineConnect=0;" parent="1" vertex="1">
          <mxGeometry x="395" y="730" width="30" height="60" as="geometry" />
        </mxCell>
        <mxCell id="PTl18jBojiNFMFhD4Kyn-16" value="" style="endArrow=classic;startArrow=classic;html=1;rounded=0;entryX=0.75;entryY=0;entryDx=0;entryDy=0;" parent="1" target="PTl18jBojiNFMFhD4Kyn-2" edge="1">
          <mxGeometry width="50" height="50" relative="1" as="geometry">
            <mxPoint x="430" y="404" as="sourcePoint" />
            <mxPoint x="450" y="520" as="targetPoint" />
          </mxGeometry>
        </mxCell>
        <mxCell id="PTl18jBojiNFMFhD4Kyn-17" value="READ" style="edgeLabel;html=1;align=center;verticalAlign=middle;resizable=0;points=[];" parent="PTl18jBojiNFMFhD4Kyn-16" vertex="1" connectable="0">
          <mxGeometry x="0.0698" y="3" relative="1" as="geometry">
            <mxPoint x="2" y="10" as="offset" />
          </mxGeometry>
        </mxCell>
        <mxCell id="PTl18jBojiNFMFhD4Kyn-22" style="edgeStyle=orthogonalEdgeStyle;rounded=0;orthogonalLoop=1;jettySize=auto;html=1;entryX=1;entryY=0.5;entryDx=0;entryDy=0;entryPerimeter=0;exitX=1;exitY=0.75;exitDx=0;exitDy=0;" parent="1" source="PTl18jBojiNFMFhD4Kyn-2" target="PTl18jBojiNFMFhD4Kyn-4" edge="1">
          <mxGeometry relative="1" as="geometry">
            <Array as="points">
              <mxPoint x="450" y="530" />
              <mxPoint x="500" y="530" />
              <mxPoint x="500" y="350" />
            </Array>
          </mxGeometry>
        </mxCell>
        <mxCell id="PTl18jBojiNFMFhD4Kyn-23" value="STORE" style="edgeLabel;html=1;align=center;verticalAlign=middle;resizable=0;points=[];" parent="PTl18jBojiNFMFhD4Kyn-22" vertex="1" connectable="0">
          <mxGeometry x="-0.02" y="-3" relative="1" as="geometry">
            <mxPoint x="-3" y="7" as="offset" />
          </mxGeometry>
        </mxCell>
        <mxCell id="PTl18jBojiNFMFhD4Kyn-24" style="edgeStyle=orthogonalEdgeStyle;rounded=0;orthogonalLoop=1;jettySize=auto;html=1;entryX=1;entryY=0;entryDx=0;entryDy=15;entryPerimeter=0;" parent="1" source="PTl18jBojiNFMFhD4Kyn-4" target="PTl18jBojiNFMFhD4Kyn-1" edge="1">
          <mxGeometry relative="1" as="geometry" />
        </mxCell>
        <mxCell id="PTl18jBojiNFMFhD4Kyn-25" value="STORE" style="edgeLabel;html=1;align=center;verticalAlign=middle;resizable=0;points=[];" parent="PTl18jBojiNFMFhD4Kyn-24" vertex="1" connectable="0">
          <mxGeometry x="0.0348" relative="1" as="geometry">
            <mxPoint as="offset" />
          </mxGeometry>
        </mxCell>
        <mxCell id="PTl18jBojiNFMFhD4Kyn-28" style="edgeStyle=orthogonalEdgeStyle;rounded=0;orthogonalLoop=1;jettySize=auto;html=1;entryX=0.013;entryY=0.82;entryDx=0;entryDy=0;entryPerimeter=0;" parent="1" source="PTl18jBojiNFMFhD4Kyn-1" target="PTl18jBojiNFMFhD4Kyn-4" edge="1">
          <mxGeometry relative="1" as="geometry">
            <Array as="points">
              <mxPoint x="200" y="382" />
              <mxPoint x="200" y="382" />
            </Array>
          </mxGeometry>
        </mxCell>
        <mxCell id="PTl18jBojiNFMFhD4Kyn-29" value="LOAD" style="edgeLabel;html=1;align=center;verticalAlign=middle;resizable=0;points=[];" parent="PTl18jBojiNFMFhD4Kyn-28" vertex="1" connectable="0">
          <mxGeometry x="0.2639" y="-1" relative="1" as="geometry">
            <mxPoint x="-36" as="offset" />
          </mxGeometry>
        </mxCell>
      </root>
    </mxGraphModel>
  </diagram>
</mxfile>
